<?xml version="1.0" encoding="UTF-8"?>
<svg width="57px" height="54px" viewBox="0 0 57 54" version="1.1" xmlns="http://www.w3.org/2000/svg" xmlns:xlink="http://www.w3.org/1999/xlink">
    <!-- Generator: Sketch 43.1 (39012) - http://www.bohemiancoding.com/sketch -->
    <title>Group Copy</title>
    <desc>Created with Sketch.</desc>
    <defs>
        <polygon id="path-1" points="56.941261 53.9882609 0 53.9882609 0 27.0560543 0 0.123847826 56.941261 0.123847826 56.941261 53.9882609"></polygon>
    </defs>
    <g id="Symbols" stroke="none" stroke-width="1" fill="none" fill-rule="evenodd">
        <g id="Header_administrador" transform="translate(-20.000000, -6.000000)">
            <g id="Group-Copy" transform="translate(20.000000, 6.000000)">
                <mask id="mask-2" fill="white">
                    <use xlink:href="#path-1"></use>
                </mask>
                <g id="Clip-2"></g>
                <path d="M29.5346949,53.2913478 C31.9269559,53.0898261 34.3259797,52.9477826 36.7099322,52.671913 C39.8103458,52.313087 42.8056475,51.5038696 45.637678,50.1493696 C50.4647085,47.8406739 53.7668441,44.1682826 55.2341593,38.9277391 C56.3527119,34.9323261 56.4216915,30.8713696 55.669678,26.8047391 C54.1252678,18.4523478 50.042522,11.6348478 43.4173831,6.42130435 C39.558,3.38419565 35.1834915,1.53019565 30.2959831,1.04106522 C26.4447153,0.655630435 22.7205864,1.25373913 19.1506475,2.75986957 C14.2339627,4.83397826 10.2831864,8.16613043 7.20364068,12.5207609 C2.30685763,19.445087 -0.00309152542,27.1218913 1.10077627,35.6683696 C1.59928475,39.528 3.24977288,42.8789348 5.99118305,45.639587 C8.83886441,48.5074565 12.3315153,50.225087 16.1277153,51.3757174 C20.4970068,52.700087 24.9878339,53.1232826 29.5346949,53.2913478 Z M0,29.853587 C0.0960305085,29.1151957 0.190901695,28.376413 0.288477966,27.6380217 C0.938857627,22.7152174 2.60596271,18.1647391 5.22525763,13.9758261 C8.30287119,9.05419565 12.3145119,5.15113043 17.5250847,2.58945652 C20.1953898,1.27663043 23.0082915,0.464673913 25.9734508,0.216 C26.0826203,0.207 26.1883119,0.155543478 26.2957424,0.123847826 L29.8546678,0.123847826 C30.6955627,0.251413043 31.5399356,0.358826087 32.3767729,0.509673913 C36.9425695,1.33317391 40.9878305,3.3213913 44.5604746,6.27143478 C50.8615831,11.4742174 54.7789322,18.1586739 56.4087458,26.2142609 C56.6288237,27.3018913 56.7014746,28.4198478 56.8463898,29.5233261 C56.8655186,29.6685 56.9089932,29.8103478 56.941261,29.9537609 L56.941261,33.9577826 C56.843878,34.6971522 56.7551898,35.4378913 56.6475661,36.1758913 C55.6432068,43.0608913 52.0750068,48.0253696 45.8218169,50.9722826 C43.0301695,52.2878478 40.0798881,53.0321087 37.0442034,53.4803478 C33.2317729,54.0432391 29.4015661,54.1160217 25.5686542,53.855413 C21.0393763,53.5474565 16.6096068,52.731587 12.4109288,50.8926522 C8.27408136,49.0805217 4.8231661,46.4433261 2.53331186,42.4258043 C1.09729831,39.9063913 0.339488136,37.1735217 0.0956440678,34.2847174 C0.0834711864,34.1407174 0.0328474576,34.0000435 0,33.8576087 L0,29.853587 L0,29.853587 Z" id="Fill-1" fill="#FFFFFF" mask="url(#mask-2)"></path>
                <path d="M29.2595492,46.4566304 C30.4266,46.3975435 31.5950034,46.3574348 32.7605085,46.2752609 C35.429461,46.0866522 38.0356169,45.5824565 40.5227492,44.5564565 C44.5850136,42.8803043 47.4100881,40.0321957 48.5844814,35.6738478 C49.3962,32.6619783 49.4263424,29.6023696 48.8010814,26.567413 C47.4325017,19.9230652 44.0078644,14.6201087 38.4008034,10.8559565 C34.5771661,8.289 30.3471864,7.21447826 25.773661,7.84663043 C21.878339,8.38506522 18.4846169,10.1036739 15.6367424,12.8111087 C10.1519898,18.0250435 7.4461322,24.4496739 7.8099661,32.1047609 C7.95932542,35.2463478 9.04986102,38.0420217 11.1758644,40.3796739 C13.180139,42.5836957 15.6985729,43.9432826 18.4693525,44.8648043 C21.9724373,46.0297174 25.5904881,46.4126087 29.2595492,46.4566304 Z M29.8983356,47.2773913 C25.5307831,47.2276957 21.8273288,46.8581087 18.2448305,45.6630652 C14.7981661,44.513413 11.7611288,42.7361087 9.57657966,39.7038913 C8.04608136,37.5796957 7.18470508,35.181587 7.02896949,32.5711957 C6.51326441,23.934913 9.63705763,16.8476087 16.1340915,11.3020435 C19.0246678,8.83486957 22.4152983,7.36493478 26.1929492,6.95484783 C31.1409356,6.41758696 35.6186237,7.78382609 39.6215695,10.6941522 C44.9302983,14.553587 48.2171695,19.7958913 49.5757017,26.2518261 C50.2525525,29.4681522 50.2367085,32.7083478 49.3708881,35.9002174 C48.1089661,40.5526304 45.0868068,43.5877826 40.7387695,45.3611739 C38.3121153,46.3507826 35.7755186,46.866913 33.1741932,47.0688261 C31.8782644,47.1691957 30.5798237,47.2345435 29.8983356,47.2773913 L29.8983356,47.2773913 Z" id="Fill-4" fill="#FFFFFF" mask="url(#mask-2)"></path>
                <path d="M26.5892441,49.6256087 C26.5892441,50.1016304 26.5971661,50.5780435 26.5855729,51.0536739 C26.5805492,51.2630217 26.6887525,51.5764565 26.3017322,51.5543478 C25.9203153,51.5326304 26.0604,51.222913 26.0607864,51.0176739 C26.062139,50.417413 26.0673559,49.8161739 26.1088983,49.2178696 C26.1210712,49.0421739 26.2870475,48.7218913 26.3363186,48.7306957 C26.5681831,48.7725652 26.873278,48.8449565 26.9884373,49.0181087 C27.2869627,49.4675217 27.4995051,49.9754348 27.8668169,50.4541957 L27.8668169,49.6457609 L27.8668169,48.837913 C28.2350949,48.6651522 28.4022305,48.7240435 28.3869661,49.1533043 C28.3639729,49.8030652 28.3871593,50.4547826 28.3554712,51.1037609 C28.3477424,51.2626304 28.1991559,51.5461304 28.122061,51.5437826 C27.9230441,51.5377174 27.6413288,51.4600435 27.5472305,51.3109565 C27.2570136,50.850587 27.0392542,50.3434565 26.7928983,49.8547174 C26.7513559,49.7723478 26.7082678,49.6909565 26.6659525,49.6089783 C26.6404475,49.6146522 26.6147492,49.6201304 26.5892441,49.6256087" id="Fill-5" fill="#FFFFFF" mask="url(#mask-2)"></path>
                <path d="M38.7706271,49.4172391 C38.5706441,49.082087 38.4164542,48.699 38.1476847,48.4354565 C38.0427661,48.3323478 37.6207729,48.42 37.4484203,48.5567609 C37.0652644,48.8606087 37.2099864,49.311587 37.3079492,49.7085652 C37.405139,50.1020217 37.6416407,50.3542174 38.0881729,50.2757609 C38.5258169,50.1986739 38.6680271,49.8975652 38.7706271,49.4172391 Z M39.251939,49.4299565 C39.2559966,50.2996304 38.7559424,50.7860217 37.8493525,50.7940435 C37.0874847,50.8006957 36.5943864,50.1775435 36.5916814,49.2041739 C36.5893627,48.3973043 37.1357898,47.8762826 37.9931085,47.8680652 C38.7901424,47.8602391 39.2471085,48.4274348 39.251939,49.4299565 L39.251939,49.4299565 Z" id="Fill-6" fill="#FFFFFF" mask="url(#mask-2)"></path>
                <path d="M18.9448678,49.6103478 C18.6415119,49.554 18.3545797,49.5007826 18.0075559,49.436413 C17.9200271,49.8195 17.8373288,50.1808696 17.7528915,50.5500652 C17.3533119,50.6128696 17.1347797,50.5686522 17.2574746,50.0677826 C17.4072203,49.4563696 17.489339,48.8279348 17.5959966,48.2059565 C17.6763763,47.7377609 17.6732847,47.7371739 18.2181661,47.8473261 C18.1781695,48.1922609 18.1374,48.5438478 18.093539,48.9226304 C18.4191153,48.9809348 18.7186068,49.0345435 19.0140407,49.0875652 C19.3044508,48.0281087 19.3044508,48.0281087 19.8116542,48.1627174 C19.6580441,49.0458913 19.5032746,49.9363043 19.3504373,50.8161522 C18.7738678,50.8879565 18.7354169,50.8470652 18.8409153,50.3172391 C18.8569525,50.2358478 18.8720237,50.1540652 18.8838102,50.0718913 C18.9044847,49.9265217 18.9224542,49.7807609 18.9448678,49.6103478" id="Fill-7" fill="#FFFFFF" mask="url(#mask-2)"></path>
                <path d="M24.3708814,49.3806522 C24.3370678,49.3755652 24.3032542,49.3704783 24.2694407,49.3653913 C24.1519627,49.653587 24.0344847,49.9419783 23.8988441,50.2751739 C24.1606576,50.3064783 24.3641186,50.3307391 24.6268983,50.3620435 C24.5304814,49.9926522 24.4506814,49.6866522 24.3708814,49.3806522 Z M25.5230542,51.4453696 C25.1296576,51.5443696 24.8964407,51.5226522 24.7837932,51.0875217 C24.7466949,50.943913 24.4224712,50.8321957 24.2134068,50.7911087 C23.9962271,50.7484565 23.7050441,50.6668696 23.6163559,51.0323478 C23.5276678,51.3978261 23.2942576,51.4475217 22.9167051,51.2868913 C23.2712644,50.4342391 23.6092068,49.5798261 23.9844407,48.7426304 C24.1084881,48.465587 24.7057322,48.5156739 24.7946136,48.810913 C25.0552678,49.6764783 25.2794034,50.553587 25.5230542,51.4453696 L25.5230542,51.4453696 Z" id="Fill-8" fill="#FFFFFF" mask="url(#mask-2)"></path>
                <path d="M21.0159966,48.3483913 C20.9572576,48.9261522 20.8987119,49.4706522 20.8473153,50.0155435 C20.8113763,50.3962826 20.9130102,50.6811522 21.355678,50.7005217 C21.795061,50.7196957 21.907322,50.4279783 21.9488644,50.0638696 C22.0087627,49.5387391 22.073878,49.0141957 22.1432441,48.4342826 C22.3548203,48.4605 22.5198305,48.4808478 22.7086068,48.5043261 C22.6396271,49.136087 22.5994373,49.7156087 22.5080441,50.2867174 C22.3938508,51.0004565 21.9463525,51.2843478 21.1736644,51.1833913 C20.5111119,51.096913 20.2154847,50.7331957 20.2570271,50.0204348 C20.2831119,49.5727826 20.3462949,49.1272826 20.3787559,48.6798261 C20.4104441,48.2458696 20.5961288,48.1196739 21.0159966,48.3483913" id="Fill-9" fill="#FFFFFF" mask="url(#mask-2)"></path>
                <path d="M32.5249729,49.2104348 C32.4223729,49.6537826 32.3477898,49.9768043 32.2614203,50.3503043 C32.5344407,50.3133261 32.7243763,50.2876957 32.9427153,50.2583478 C32.8922847,50.102413 32.8596305,49.9771957 32.8117119,49.8582391 C32.7400271,49.6807826 32.657522,49.5078261 32.5249729,49.2104348 Z M34.0195322,51.2610652 C33.6746339,51.413087 33.4045119,51.4770652 33.2891593,51.0538696 C33.1687831,50.6132609 32.824078,50.8018696 32.5589797,50.7795652 C32.3116576,50.7586304 32.0964102,50.8173261 32.0653017,51.1223478 C32.0224068,51.5422174 31.7571153,51.506413 31.4056475,51.4594565 C31.649878,50.5565217 31.8701492,49.6938913 32.1284847,48.8431957 C32.1644237,48.7248261 32.3845017,48.6041087 32.5261322,48.5951087 C32.6702746,48.5861087 32.9058102,48.6747391 32.9579797,48.7882174 C33.3293492,49.5952826 33.6638136,50.4195652 34.0195322,51.2610652 L34.0195322,51.2610652 Z" id="Fill-10" fill="#FFFFFF" mask="url(#mask-2)"></path>
                <path d="M23.3381186,6.0165 C23.1707898,6.06423913 23.0374678,6.1023913 22.8774814,6.14797826 C22.6707356,5.30882609 22.4734576,4.5086087 22.2723153,3.69293478 C22.5795356,3.45580435 22.8280169,3.49669565 23.099878,3.80367391 C23.4262271,4.17169565 23.8055186,4.49158696 24.2342746,4.90147826 C24.0793119,4.31315217 23.9498542,3.82186957 23.8082237,3.28421739 C23.9606746,3.22943478 24.1021119,3.17856522 24.2667356,3.11947826 C24.4756068,3.96273913 24.6740441,4.76354348 24.8759593,5.57921739 C24.6473797,5.78797826 24.4425661,5.77682609 24.2079966,5.54223913 C23.8132475,5.14721739 23.3933797,4.77782609 22.8927458,4.31276087 C23.0548576,4.93317391 23.1872136,5.43873913 23.3381186,6.0165" id="Fill-11" fill="#FFFFFF" mask="url(#mask-2)"></path>
                <path d="M43.3758407,10.1715652 C43.688278,9.79102174 44.000522,9.41028261 44.3278373,9.01134783 C44.4592271,9.12834783 44.5664644,9.22402174 44.6883864,9.33280435 C44.1417661,9.98315217 43.6127288,10.6125652 43.0796339,11.2468696 C42.7148339,11.1508043 42.6837254,10.9023261 42.7275864,10.5939783 C42.8013966,10.0766739 42.8580102,9.55682609 42.9401288,8.88847826 C42.5104068,9.41067391 42.1792271,9.81273913 41.8279525,10.2396522 C41.6992678,10.1220652 41.5953153,10.0269783 41.4732,9.91545652 C42.0242644,9.26334783 42.5548475,8.6355 43.0898746,8.00217391 C43.4668475,8.12543478 43.5557288,8.36980435 43.4869424,8.73195652 C43.398061,9.20171739 43.3418339,9.67793478 43.2716949,10.1512174 C43.3064746,10.1580652 43.3412542,10.1647174 43.3758407,10.1715652" id="Fill-12" fill="#FFFFFF" mask="url(#mask-2)"></path>
                <path d="M5.1889322,30.0856304 C4.99204068,30.3757826 4.9010339,30.6115435 4.731,30.7408696 C4.29103729,31.0756304 3.81610169,31.3638261 3.28996271,31.7138478 L4.99803051,31.7138478 C5.01271525,31.8592174 5.02662712,31.9979348 5.04324407,32.1650217 L2.52693559,32.1650217 C2.39689831,31.7774348 2.49582712,31.5577174 2.8366678,31.383587 C3.25653559,31.1689565 3.64413559,30.8893696 4.15133898,30.5716304 L2.51766102,30.5716304 C2.50452203,30.3906522 2.49486102,30.2536957 2.48268814,30.0856304 L5.1889322,30.0856304" id="Fill-13" fill="#FFFFFF" mask="url(#mask-2)"></path>
                <path d="M20.1240915,5.34052174 C20.113078,5.8946087 20.5230915,6.42991304 20.961122,6.39645652 C21.3469831,6.36691304 21.5394305,6.12117391 21.5545017,5.73084783 C21.5753695,5.19593478 21.1723119,4.65573913 20.7393051,4.64126087 C20.396339,4.62971739 20.1322068,4.92984783 20.1240915,5.34052174 Z M22.0986102,5.59134783 C22.0978373,6.29295652 21.5371119,6.88891304 20.8641254,6.9033913 C20.1828305,6.91786957 19.5768915,6.23856522 19.5786305,5.46202174 C19.5803695,4.76178261 20.1416746,4.16367391 20.8106034,4.14919565 C21.4847492,4.13491304 22.0993831,4.82302174 22.0986102,5.59134783 L22.0986102,5.59134783 Z" id="Fill-14" fill="#FFFFFF" mask="url(#mask-2)"></path>
                <path d="M48.8575017,15.0992609 C48.8567288,14.7815217 48.6453458,14.5672826 48.2608373,14.5424348 C47.7629085,14.5101522 47.2296203,15.0004565 47.2294271,15.4737391 C47.2292339,15.888913 47.4570407,16.0747826 47.8467661,16.0800652 C48.3520373,16.086913 48.8430102,15.6472826 48.8575017,15.0992609 Z M48.1344712,14.0390217 C48.8207898,14.0446957 49.3778441,14.589 49.3824814,15.258913 C49.3873119,15.957 48.6718169,16.6343478 47.9424102,16.622413 C47.2887458,16.6116522 46.6928542,16.0235217 46.6876373,15.3837391 C46.6820339,14.6754783 47.3733763,14.0329565 48.1344712,14.0390217 L48.1344712,14.0390217 Z" id="Fill-15" fill="#FFFFFF" mask="url(#mask-2)"></path>
                <path d="M14.9318746,10.6428913 C14.0639288,11.0484783 13.4042746,10.4114348 12.5877254,10.449587 C12.9693356,10.8661304 13.3059254,11.2335652 13.6666678,11.627413 C13.5609763,11.7403043 13.4655254,11.8420435 13.3372271,11.9788043 C12.7618169,11.3292391 12.2086271,10.704913 11.6527322,10.0774565 C11.8509763,9.75326087 12.0675763,9.64995652 12.4383661,9.79493478 C12.9036407,9.9768913 13.4002169,10.0764783 13.9617153,10.2333913 C13.5480305,9.78378261 13.1919254,9.39678261 12.8186237,8.99080435 C12.9473085,8.86754348 13.0516475,8.76736957 13.1735695,8.65056522 C13.7433763,9.29621739 14.2961797,9.92269565 14.9318746,10.6428913" id="Fill-16" fill="#FFFFFF" mask="url(#mask-2)"></path>
                <path d="M48.948122,18.5241522 C49.0727492,18.9467609 49.3077051,19.2535435 49.6819729,19.184087 C50.0011729,19.1248043 50.3563119,18.9246522 50.5626712,18.674413 C50.7922169,18.396 50.6751254,18.0301304 50.4214271,17.7345 C49.9204068,18.0031304 49.4483695,18.255913 48.948122,18.5241522 Z M48.3145525,18.2191304 C49.1001864,17.825087 49.8309458,17.4584348 50.5972576,17.0739783 C50.8787797,17.7290217 51.4512915,18.2999348 51.0007017,19.0723696 C50.7164746,19.5597391 50.2390271,19.7622391 49.6962712,19.715087 C48.8277458,19.6395652 48.6153966,18.9138913 48.3145525,18.2191304 L48.3145525,18.2191304 Z" id="Fill-17" fill="#FFFFFF" mask="url(#mask-2)"></path>
                <path d="M6.51307119,17.2271739 C7.15321017,17.5889348 7.63471525,17.8612826 8.27427458,18.2228478 C8.29475593,17.8172609 8.43039661,17.4314348 8.29610847,17.240087 C8.10482034,16.9673478 7.72630169,16.7149565 7.40710169,16.6856087 C7.15746102,16.6627174 6.87632542,16.9921957 6.51307119,17.2271739 Z M8.22481017,18.8405217 C7.48245763,18.401087 6.77913559,17.9849348 6.02461017,17.5382609 C6.40312881,16.9546304 6.56195593,16.1753478 7.4194678,16.097087 C7.97536271,16.046413 8.39581017,16.3428261 8.67462712,16.8166957 C9.14067458,17.6085 8.63521017,18.1948696 8.22481017,18.8405217 L8.22481017,18.8405217 Z" id="Fill-18" fill="#FFFFFF" mask="url(#mask-2)"></path>
                <path d="M31.3304847,5.18908696 C31.7041729,5.07619565 32.0301356,5.06347826 32.2326305,4.89678261 C32.539078,4.6443913 32.6146271,4.25191304 32.4608237,3.85493478 C32.3072136,3.45854348 31.9911051,3.3438913 31.5783864,3.34721739 C31.5039966,3.90091304 31.4317322,4.43778261 31.3304847,5.18908696 Z M30.7394237,5.37593478 C30.8737119,4.52543478 31.004522,3.69802174 31.1424814,2.82345652 C31.8278339,2.98721739 32.5916339,2.844 32.970539,3.61643478 C33.2350576,4.15584783 33.0936203,4.66082609 32.7350034,5.09928261 C32.1723458,5.78680435 31.4680576,5.52032609 30.7394237,5.37593478 L30.7394237,5.37593478 Z" id="Fill-19" fill="#FFFFFF" mask="url(#mask-2)"></path>
                <path d="M9.75125085,12.7612174 C10.1981695,13.131587 10.621322,13.4823913 11.0400305,13.8294783 C11.5567017,13.3421087 11.569261,12.9314348 11.1097831,12.5090217 C10.6524305,12.0883696 10.2385525,12.1501957 9.75125085,12.7612174 Z M11.0143322,14.5461522 C10.3726475,13.9842391 9.75221695,13.440913 9.08522034,12.8566957 C9.57619322,12.375587 9.85095254,11.6117609 10.7293322,11.7105652 C11.3182678,11.7766957 11.6788169,12.1631087 11.8432475,12.707413 C12.0967525,13.5467609 11.5226949,14.0231739 11.0143322,14.5461522 L11.0143322,14.5461522 Z" id="Fill-20" fill="#FFFFFF" mask="url(#mask-2)"></path>
                <path d="M4.20370169,22.9003043 C4.5391322,22.8285 4.81215254,23.3121522 5.01368136,22.8568696 C5.07918305,22.7089565 4.94083729,22.3086522 4.81099322,22.2613043 C4.36465424,22.0983261 4.35190169,22.5131087 4.20370169,22.9003043 Z M5.34698644,23.2002391 C5.63488475,23.3041304 5.92201017,23.4078261 6.25995254,23.5297174 C6.20449831,23.7069783 6.15310169,23.8713261 6.09668136,24.0521087 C5.29133898,23.7735 4.52116271,23.5070217 3.70190847,23.2233261 C3.78866441,22.9353261 3.8626678,22.6549565 3.9577322,22.3820217 C4.0717322,22.0546957 4.16930847,21.693913 4.59381356,21.6504783 C5.04111864,21.6048913 5.22062034,21.9273261 5.34582712,22.2329348 C5.80743051,22.1671957 6.24700678,22.104587 6.70397288,22.0394348 C6.70300678,22.4917826 6.57007119,22.6944783 6.15020339,22.6528043 C5.7693661,22.6152391 5.42098983,22.6931087 5.34698644,23.2002391 L5.34698644,23.2002391 Z" id="Fill-21" fill="#FFFFFF" mask="url(#mask-2)"></path>
                <path d="M53.7801763,30.0285 C53.4874475,30.0607826 53.2609932,30.0858261 53.0289356,30.1114565 C53.0677729,30.5029565 53.0596576,30.9024783 53.5090881,30.833413 C53.9276034,30.7692391 53.7788237,30.3892826 53.7801763,30.0285 Z M52.8347492,31.0953913 C52.5445322,31.2542609 52.1623424,31.463413 51.7730034,31.6766739 C51.5581424,31.1953696 51.7548407,30.9887609 52.1468847,30.8709783 C52.4701424,30.7737391 52.7136,30.6001957 52.6210475,30.1607609 L51.6506949,30.1607609 C51.6377492,29.9621739 51.6267356,29.7935217 51.611278,29.5581522 L54.1544441,29.5581522 C54.1729932,29.8328478 54.2131831,30.159 54.2120237,30.4851522 C54.2110576,30.8175652 54.2081593,31.2356739 53.8224915,31.3068913 C53.5392305,31.3591304 53.2153932,31.1859783 52.8347492,31.0953913 L52.8347492,31.0953913 Z" id="Fill-22" fill="#FFFFFF" mask="url(#mask-2)"></path>
                <path d="M46.205939,12.8306739 C46.5071695,12.9781957 46.7019356,13.1126087 46.9152508,13.1583913 C46.9991085,13.1763913 47.2251763,12.977413 47.2126169,12.9106957 C47.1718475,12.6937174 47.0506983,12.4923913 46.9343797,12.2245435 C46.6818407,12.4346739 46.5114203,12.5765217 46.205939,12.8306739 Z M46.7260881,13.7304783 C46.6203966,13.9666304 46.4397356,14.3702609 46.2459356,14.8032391 C45.8583356,14.5848913 45.7684881,14.3587174 46.0260508,14.0018478 C46.2441966,13.6995652 46.4184814,13.3628478 45.9821898,13.0368913 C45.7474271,13.230587 45.5082203,13.428 45.2442814,13.6457609 C45.1258373,13.5160435 45.0191797,13.3986522 44.8765831,13.2423261 C45.5381695,12.6935217 46.1788881,12.1619348 46.8526475,11.6031522 C47.0541763,11.8393043 47.2528068,12.0556957 47.4325017,12.2869565 C47.6475559,12.563413 47.9203831,12.896413 47.671322,13.2200217 C47.4962644,13.4477609 47.1291458,13.5242609 46.7260881,13.7304783 L46.7260881,13.7304783 Z" id="Fill-23" fill="#FFFFFF" mask="url(#mask-2)"></path>
                <path d="M15.6939356,8.52632609 C15.4178237,8.32343478 15.2018034,8.16476087 14.8580644,7.91217391 C14.9805661,8.33184783 15.0599797,8.60321739 15.1498271,8.91117391 C15.3297153,8.784 15.4736644,8.68226087 15.6939356,8.52632609 Z M14.3547254,7.77013043 C14.6986576,7.34576087 15.0010475,7.2761087 15.4288373,7.64980435 C15.9339153,8.0913913 16.5153153,8.44317391 17.1115932,8.86813043 C16.9257153,9.01369565 16.779061,9.12854348 16.6397492,9.23771739 C15.9393254,8.79123913 15.9393254,8.79123913 15.3262373,9.34102174 C15.397922,9.54802174 15.4725051,9.76363043 15.5606136,10.0181739 C15.4263254,10.121087 15.2881729,10.2269348 15.0850983,10.3824783 C14.8327525,9.48013043 14.5956712,8.63178261 14.3547254,7.77013043 L14.3547254,7.77013043 Z" id="Fill-24" fill="#FFFFFF" mask="url(#mask-2)"></path>
                <path d="M26.1456102,3.27873913 C26.0681288,3.69723913 26.0142203,3.98856522 25.9467864,4.35247826 C26.1921763,4.30571739 26.3705186,4.27186957 26.5819017,4.23176087 C26.4367932,3.91480435 26.3168034,3.65282609 26.1456102,3.27873913 Z M27.6625831,5.3006087 C27.3876305,5.3148913 27.2121864,5.3238913 27.0251492,5.33367391 C26.9283458,5.10495652 26.8396576,4.8956087 26.7447864,4.67158696 C26.4706068,4.69663043 26.2136237,4.7201087 25.9065966,4.74808696 C25.8573254,4.97641304 25.8065085,5.21158696 25.7444847,5.49821739 C25.5978305,5.51191304 25.4281831,5.52736957 25.1650169,5.55163043 C25.3818102,4.66434783 25.5578339,3.8298913 25.8169424,3.02263043 C25.8511424,2.91619565 26.4943729,2.84595652 26.5420983,2.9336087 C26.9474746,3.67943478 27.2802,4.46576087 27.6625831,5.3006087 L27.6625831,5.3006087 Z" id="Fill-25" fill="#FFFFFF" mask="url(#mask-2)"></path>
                <path d="M8.99691864,15.4406739 C9.1418339,15.2158696 9.24153559,15.0611087 9.35824068,14.8801304 C9.02667458,14.7787826 8.75655254,14.6960217 8.37049831,14.5780435 C8.61356949,14.9128043 8.77684068,15.1378043 8.99691864,15.4406739 Z M9.26375593,15.7535217 C9.42992542,15.9732391 9.56769153,16.1553913 9.71878983,16.3555435 C9.62005424,16.4985652 9.52924068,16.6300435 9.38277966,16.8425217 C8.8578,16.0632391 8.36547458,15.3324783 7.87720678,14.607587 C8.03680678,14.0546739 8.35233559,13.9441304 8.87093898,14.1436957 C9.49233559,14.3829783 10.1402034,14.5514348 10.8359898,14.769 C10.6916542,14.9785435 10.5838373,15.1352609 10.473122,15.2962826 C10.2246407,15.2055 10.0132576,15.1282174 9.76960678,15.0393913 C9.60575593,15.2706522 9.44596271,15.4962391 9.26375593,15.7535217 L9.26375593,15.7535217 Z" id="Fill-26" fill="#FFFFFF" mask="url(#mask-2)"></path>
                <path d="M2.58895932,33.5003478 C2.55804407,33.3397174 2.52809492,33.1833913 2.48500678,32.9583913 C3.1122,32.9239565 3.69746441,32.8638913 4.28253559,32.867413 C4.82876949,32.8705435 5.16864407,33.2461957 5.22776949,33.8206304 C5.28457627,34.3737391 5.04266441,34.7902826 4.51324068,34.9063043 C3.94092203,35.0317174 3.35314576,35.0849348 2.71803051,35.1774783 C2.7008339,34.9556087 2.68769492,34.7853913 2.67243051,34.5903261 C3.13712542,34.5451304 3.56047119,34.5157826 3.98014576,34.4580652 C4.18669831,34.4295 4.43614576,34.403087 4.57410508,34.2745435 C4.69950508,34.1577391 4.78336271,33.8756087 4.73157966,33.7181087 C4.68095593,33.5641304 4.43595254,33.3765 4.27615932,33.3765 C3.72451525,33.3761087 3.17267797,33.4512391 2.58895932,33.5003478" id="Fill-27" fill="#FFFFFF" mask="url(#mask-2)"></path>
                <path d="M54.2483492,32.1722609 C54.2172407,32.3708478 54.1944407,32.517 54.1650712,32.7050217 C53.7670373,32.6727391 53.3807898,32.6377174 52.9939627,32.6116957 C52.8150407,32.5995652 52.6330271,32.5866522 52.4556508,32.6058261 C52.1590576,32.637913 51.9797492,32.7887609 51.9758847,33.1243043 C51.9718271,33.4729565 52.1928712,33.6058043 52.4649254,33.6427826 C52.9841085,33.713413 53.5085085,33.7441304 54.0557085,33.7936304 L54.0557085,34.349087 C53.4358576,34.2694565 52.8343627,34.2322826 52.2519966,34.1053043 C51.7351322,33.9926087 51.4700339,33.5238261 51.5320576,33.0065217 C51.6072203,32.3798478 51.9210102,32.0736522 52.5290746,32.0601522 C52.8739729,32.0525217 53.2198373,32.0654348 53.5645424,32.0846087 C53.7759254,32.0963478 53.9855695,32.1374348 54.2483492,32.1722609" id="Fill-28" fill="#FFFFFF" mask="url(#mask-2)"></path>
                <path d="M30.9950542,50.8445217 C31.1370712,51.2205652 31.0155356,51.39 30.7079288,51.5005435 C29.9108949,51.7869783 29.2212915,51.4095652 29.0245932,50.5592609 C28.7664508,49.4440435 29.4616576,48.5397391 30.4693017,48.6800217 C30.9038542,48.7404783 31.0199797,48.8870217 30.9749593,49.3677391 C30.5415661,49.2399783 30.0666305,48.9294783 29.740861,49.5295435 C29.5557559,49.8707609 29.6054136,50.6140435 29.8384373,50.8601739 C30.2049763,51.2475652 30.5900644,51.0358696 30.9950542,50.8445217" id="Fill-29" fill="#FFFFFF" mask="url(#mask-2)"></path>
                <path d="M51.1233966,20.466587 C51.0211831,20.8136739 51.6126305,21.1695652 50.9989627,21.479087 C50.8768475,21.1779783 50.773861,20.9236304 50.6646915,20.654413 C50.4544678,20.7442174 50.260861,20.8267826 50.032861,20.9242174 C50.1735254,21.2805 50.3045288,21.6123261 50.4461593,21.9709565 C50.300278,22.0243696 50.186278,22.0662391 50.0436814,22.1186739 C49.8361627,21.6001957 49.6396576,21.1098913 49.4242169,20.5718478 C50.2034746,20.2543043 50.9715254,19.9416522 51.7902,19.6080652 C51.9882508,20.0987609 52.1781864,20.568913 52.3791356,21.0666522 C52.2452339,21.128087 52.1329729,21.1795435 51.982261,21.2488043 C51.8529966,20.9263696 51.7320407,20.6250652 51.5846136,20.2576304 C51.4128407,20.3355 51.2487966,20.4098478 51.1233966,20.466587" id="Fill-30" fill="#FFFFFF" mask="url(#mask-2)"></path>
                <path d="M33.2663593,5.83669565 C33.4997695,5.00497826 33.7217797,4.21415217 33.9615661,3.35973913 C34.4606542,3.49865217 34.9531729,3.6356087 35.4781525,3.78156522 C35.4284949,3.93769565 35.3902373,4.05723913 35.3419322,4.20906522 C35.0113322,4.10986957 34.7035322,4.01752174 34.3621119,3.91519565 C34.3054983,4.09578261 34.253522,4.26169565 34.2077288,4.40823913 C34.3404712,4.75376087 35.1006,4.41723913 34.9415797,5.13391304 C34.6268237,5.04978261 34.3810475,4.98423913 34.0974,4.90852174 C34.0317051,5.1393913 33.9748983,5.33915217 33.9088169,5.57119565 C34.2743898,5.67469565 34.6163898,5.77115217 34.9618678,5.86878261 C34.9842814,6.2231087 34.8244881,6.30802174 34.5143695,6.20980435 C34.1256102,6.08673913 33.7333729,5.9756087 33.2663593,5.83669565" id="Fill-31" fill="#FFFFFF" mask="url(#mask-2)"></path>
                <path d="M51.8877763,29.1815217 C51.7749356,29.0862391 51.5840339,29.0056304 51.5629729,28.8927391 C51.4787288,28.4398043 51.4472339,27.9768913 51.3925525,27.4850217 C52.2409831,27.3760435 53.0490305,27.2721522 53.9163966,27.1608261 C53.9795797,27.6795 54.0406373,28.1807609 54.1011153,28.6769348 C53.6683017,28.7921739 53.6683017,28.7921739 53.5442542,27.7466087 C53.3647525,27.7775217 53.1867966,27.8080435 52.9688441,27.8456087 C53.0061356,28.0817609 53.0559864,28.2748696 53.0581119,28.4681739 C53.059078,28.5548478 52.9642068,28.6423043 52.9128102,28.7293696 C52.8189051,28.6673478 52.6666475,28.6225435 52.6430746,28.5399783 C52.5851085,28.3372826 52.586461,28.1171739 52.5626949,27.8917826 C52.3459017,27.9181957 52.1522949,27.9416739 51.8966644,27.9727826 C51.9318305,28.3406087 51.9668034,28.7086304 52.0017763,29.0766522 C51.9639051,29.1116739 51.9258407,29.1466957 51.8877763,29.1815217" id="Fill-32" fill="#FFFFFF" mask="url(#mask-2)"></path>
                <path d="M3.48298983,23.9544783 C3.87020339,24.0787174 3.87020339,24.0787174 3.66944746,25.1031522 C3.83832203,25.133087 4.00642373,25.1628261 4.21046441,25.1990217 C4.28369492,24.9354783 4.3567322,24.6723261 4.44020339,24.3710217 C4.57874237,24.413087 4.69409492,24.4481087 4.8222,24.4870435 C4.75708475,24.7717174 4.69892542,25.0258696 4.63574237,25.3017391 C4.85524068,25.3582826 5.05676949,25.4101304 5.29501017,25.4715652 C5.38640339,25.1000217 5.47180678,24.7525435 5.56281356,24.3819783 C5.85650847,24.3919565 5.99524068,24.4956522 5.91505424,24.8014565 C5.80646441,25.2158478 5.70328475,25.6318043 5.58310169,26.105087 C4.77157627,25.9045435 3.97261017,25.7071304 3.11355254,25.4946522 C3.23991864,24.9679565 3.3610678,24.4629783 3.48298983,23.9544783" id="Fill-33" fill="#FFFFFF" mask="url(#mask-2)"></path>
                <path d="M40.4462339,8.66367391 C40.7582847,8.8788913 41.0419322,9.07434783 41.3501186,9.28682609 C41.2732169,9.40597826 41.2055898,9.51084783 41.1124576,9.65543478 C40.6502746,9.33202174 40.2101186,9.02386957 39.7431051,8.69693478 C40.2325322,7.98808696 40.7074678,7.30076087 41.2069424,6.57743478 C41.6449729,6.88480435 42.0592373,7.17534783 42.4914712,7.4786087 C42.4031695,7.6053913 42.3293593,7.71123913 42.2371932,7.84369565 C41.9556712,7.6413913 41.6911525,7.45121739 41.3876034,7.23306522 C41.2842305,7.38528261 41.1880068,7.52752174 41.1143898,7.63591304 C41.1203797,8.03230435 41.9662983,7.9383913 41.5410203,8.56526087 C41.3035525,8.40541304 41.0898508,8.26141304 40.8253322,8.08336957 C40.6972271,8.27941304 40.576078,8.46469565 40.4462339,8.66367391" id="Fill-34" fill="#FFFFFF" mask="url(#mask-2)"></path>
                <path d="M6.8514,21.9175435 C6.67904746,21.7938913 6.56678644,21.7132826 6.48602034,21.6553696 C6.61856949,21.3605217 6.75169831,21.1128261 6.83748814,20.8494783 C6.86917627,20.7524348 6.82009831,20.5902391 6.74937966,20.5117826 C6.70938305,20.4675652 6.53084746,20.502 6.44930847,20.555413 C6.27135254,20.6716304 6.11716271,20.8246304 5.95041356,20.9590435 C5.66850508,21.186 5.36302373,21.2523261 5.03841356,21.0629348 C4.68578644,20.8571087 4.6863661,20.5082609 4.77041695,20.181913 C4.84287458,19.9007609 5.00286102,19.6428913 5.13637627,19.3478478 C5.28786102,19.4368696 5.39529153,19.4996739 5.53015932,19.5787174 C5.44263051,19.7358261 5.33481356,19.8667174 5.29558983,20.0161957 C5.25018305,20.1895435 5.26506102,20.3789348 5.25366102,20.5614783 C5.42021695,20.5000435 5.59353559,20.4528913 5.75043051,20.3724783 C5.84935932,20.3216087 5.92085085,20.2181087 6.00915254,20.1437609 C6.31289492,19.8886304 6.63924407,19.7962826 7.00365763,20.0138478 C7.3966678,20.2488261 7.37541356,20.6281957 7.27551864,20.9836957 C7.18856949,21.2926304 7.01119322,21.5755435 6.8514,21.9175435" id="Fill-35" fill="#FFFFFF" mask="url(#mask-2)"></path>
                <path d="M52.3708271,25.5488478 C52.5136169,25.9127609 52.5414407,26.3807609 53.0277763,26.1946957 C53.446678,26.0342609 53.2907492,25.6734783 53.1431288,25.353587 C52.894261,25.416587 52.6627831,25.475087 52.3708271,25.5488478 Z M53.4799119,24.7498043 C53.5521763,25.1790652 53.6829864,25.5858261 53.6648237,25.9855435 C53.6538102,26.2316739 53.4704441,26.5570435 53.2656305,26.685587 C52.9748339,26.8683261 52.6088746,26.7712826 52.3903424,26.4697826 C52.2191492,26.2340217 52.1103661,25.9518913 51.9521186,25.6486304 C51.6997729,25.6940217 51.4172847,25.745087 51.0835932,25.8053478 C51.0501661,25.6347391 51.0200237,25.4805652 50.9804136,25.2788478 C51.7946441,25.1064783 52.5883932,24.9386087 53.4799119,24.7498043 L53.4799119,24.7498043 Z" id="Fill-36" fill="#FFFFFF" mask="url(#mask-2)"></path>
                <path d="M35.0783797,51.1336957 C35.1946983,50.0818696 34.413122,49.4062826 33.9551898,48.5487391 C34.283278,48.4045435 34.5354305,48.3307826 34.7247864,48.6986087 C34.8488339,48.9394565 35.0074678,49.161913 35.1548949,49.3996304 C35.5380508,49.0343478 35.2099627,48.1216304 36.1737458,48.2699348 C36.020522,48.7148478 35.8448847,49.1227826 35.7442169,49.5487174 C35.6592,49.9095 35.5884814,50.3021739 35.6418102,50.661 C35.7131085,51.1423043 35.5432678,51.2236957 35.0783797,51.1336957" id="Fill-37" fill="#FFFFFF" mask="url(#mask-2)"></path>
                <path d="M4.7424,27.4077391 C4.06071864,27.0831522 3.51467797,26.8231304 2.92226441,26.5408043 C2.94545085,26.387413 2.97076271,26.2197391 3.0076678,25.974587 C3.78808475,26.4185217 4.52116271,26.8166739 5.22796271,27.2580652 C5.33365424,27.3241957 5.31626441,27.5926304 5.36418305,27.8039348 C4.44116949,27.9723913 3.59409153,28.1267609 2.72208814,28.2856304 C2.60982712,27.8483478 2.69658305,27.6229565 3.1454339,27.5916522 C3.63157627,27.558 4.11482034,27.4822826 4.7424,27.4077391" id="Fill-38" fill="#FFFFFF" mask="url(#mask-2)"></path>
                <path d="M17.5413153,5.66784783 C17.6019864,5.80069565 17.6549288,5.91671739 17.7063254,6.02980435 C16.8926746,6.54652174 16.7568407,6.87052174 17.1061831,7.4253913 C17.4489559,7.9691087 17.9302678,7.97830435 18.6685627,7.44730435 C18.9435153,7.68345652 18.8901864,7.87147826 18.6036407,8.05597826 C18.1240678,8.36491304 17.6305831,8.56682609 17.0922712,8.22521739 C16.6072881,7.91765217 16.366922,7.452 16.4306847,6.8756087 C16.5027559,6.22134783 16.9318983,5.868 17.5413153,5.66784783" id="Fill-39" fill="#FFFFFF" mask="url(#mask-2)"></path>
                <path d="M40.5664169,6.192 C40.4653627,6.32230435 40.3871085,6.42345652 40.2943627,6.543 C39.6513254,6.01826087 39.0942712,6.01591304 38.7727525,6.85428261 C38.5712237,7.38019565 38.8150678,7.69558696 39.5862102,8.05676087 C39.4202339,8.48308696 39.4159831,8.4918913 39.0678,8.3201087 C38.5573119,8.06830435 38.1442068,7.74078261 38.1550271,7.0833913 C38.1643017,6.50543478 38.4342305,6.09123913 38.9294542,5.84863043 C39.5180034,5.56043478 40.0441424,5.73554348 40.5664169,6.192" id="Fill-40" fill="#FFFFFF" mask="url(#mask-2)"></path>
                <path d="M44.2658136,12.5297609 C44.0443831,12.3165 43.9284508,12.2047826 43.8360915,12.1159565 C44.3137322,11.5949348 44.7803593,11.0862391 45.2784814,10.542913 C45.1480576,10.395587 45.0004373,10.2294783 44.7846102,9.98608696 C44.8910746,9.9041087 44.999278,9.82056522 45.0263288,9.79963043 C45.5404881,10.2735 46.0125254,10.7084348 46.5450407,11.1989348 C46.4277559,11.3204348 46.3431254,11.4082826 46.2070983,11.5491522 C46.0161966,11.3139783 45.8824881,11.1492391 45.6805729,10.9005652 C45.1994542,11.4544565 44.7390102,11.9846739 44.2658136,12.5297609" id="Fill-41" fill="#FFFFFF" mask="url(#mask-2)"></path>
                <path d="M36.2083322,4.04119565 C36.3918915,4.12297826 36.5366136,4.18734783 36.7099322,4.26482609 C36.4481186,4.9226087 36.1992508,5.54771739 35.9285492,6.228 C36.2649458,6.3671087 36.5885898,6.50113043 36.9151322,6.63632609 C36.8977424,6.97832609 36.7804576,7.08652174 36.4564271,6.93176087 C36.0891153,6.75645652 35.7026746,6.62204348 35.2772034,6.45084783 C35.5844237,5.65571739 35.8848814,4.87858696 36.2083322,4.04119565" id="Fill-42" fill="#FFFFFF" mask="url(#mask-2)"></path>
                <path d="M50.7622678,22.9218261 C50.876461,23.288087 50.9782881,23.6138478 51.0934475,23.9834348 C50.9529763,24.021 50.8240983,24.0554348 50.6706814,24.0965217 C50.5072169,23.5778478 50.3549593,23.0941957 50.1849254,22.554587 C50.9952915,22.2902609 51.7782203,22.0347391 52.6061695,21.7645435 C52.6654881,21.9435652 52.7195898,22.1069348 52.7816136,22.2939783 C52.1134576,22.5017609 51.4764102,22.6997609 50.7622678,22.9218261" id="Fill-43" fill="#FFFFFF" mask="url(#mask-2)"></path>
                <path d="M28.462322,4.8465 L29.5190441,4.8465 C29.6052203,5.15856522 29.5785559,5.33856522 29.2071864,5.32036957 C28.8135966,5.301 28.4182678,5.31586957 27.9734746,5.31586957 L27.9734746,2.74930435 C28.1118203,2.73971739 28.2679424,2.72895652 28.462322,2.71565217 L28.462322,4.8465" id="Fill-44" fill="#FFFFFF" mask="url(#mask-2)"></path>
                <path d="M5.13598983,28.9680652 C5.12729492,29.1619565 5.12014576,29.3196522 5.11125763,29.5188261 C4.25606441,29.4438913 3.43507119,29.3718913 2.5773661,29.2965652 C2.5858678,29.1159783 2.59321017,28.9586739 2.60345085,28.7383696 C3.46173559,28.8162391 4.28350169,28.8907826 5.13598983,28.9680652" id="Fill-45" fill="#FFFFFF" mask="url(#mask-2)"></path>
                <path d="M7.98386441,19.355087 C7.89459661,19.5378261 7.83006102,19.6698913 7.74098644,19.8522391 C6.97757288,19.4668043 6.22845763,19.0888043 5.46137288,18.701413 C5.54561695,18.531587 5.61691525,18.387587 5.70598983,18.2079783 C6.46631186,18.5908696 7.2048,18.9628043 7.98386441,19.355087" id="Fill-46" fill="#FFFFFF" mask="url(#mask-2)"></path>
                <path d="M18.635522,5.08597826 C19.0266,5.8818913 19.3842508,6.60971739 19.7635424,7.38176087 C19.6151492,7.46726087 19.4681085,7.55178261 19.2826169,7.6586087 C18.9019729,6.87384783 18.5371729,6.12234783 18.1580746,5.34052174 C18.3223119,5.25286957 18.4623966,5.17832609 18.635522,5.08597826" id="Fill-47" fill="#FFFFFF" mask="url(#mask-2)"></path>
                <path d="M54.5821291,33.0478043 C54.7337505,33.3062609 54.8853718,33.5647174 55.0369932,33.8233696 C54.9605252,33.8611304 54.8840572,33.899087 54.8075892,33.9368478 C54.6340572,33.6897391 54.4605252,33.4424348 54.2869932,33.1953261 C54.3853718,33.1460217 54.4837505,33.096913 54.5821291,33.0478043" id="Fill-48" fill="#FFFFFF" mask="url(#mask-2)"></path>
                <path d="M27.0711356,18.7401522 C27.5333186,19.1876087 28.7270339,19.2789783 29.1370475,18.891587 C29.203322,18.8291739 29.1818746,18.5333478 29.1061322,18.4777826 C28.6951525,18.1764783 27.4803763,18.3402391 27.0711356,18.7401522 Z M21.7728407,36.5376522 C21.6190373,37.319087 22.436939,37.2623478 22.6160542,37.6747826 C22.4226407,38.1071739 21.6254136,38.0116957 21.7747729,38.7757174 C22.3675729,38.4237391 22.9290712,38.0901522 23.5355898,37.7299565 C22.9387322,37.3261304 22.3859288,36.9524348 21.7728407,36.5376522 Z M31.2655627,37.5869348 C30.6859017,37.1658913 30.1516475,36.7777174 29.5945932,36.372913 C29.3828237,37.2138261 30.2720237,37.142413 30.4731661,37.6041522 C29.5240678,38.331587 29.5240678,38.331587 29.6427051,38.7727826 C30.1663322,38.3902826 30.680878,38.0142391 31.2655627,37.5869348 Z M16.9604949,20.5293913 L16.9604949,20.4916304 C17.2721593,20.4916304 17.5838237,20.493587 17.8954881,20.4914348 C19.2086136,20.4824348 18.9437085,20.5696957 18.9912407,19.3633043 C19.0065051,18.9737609 18.8702847,18.828 18.4838441,18.8368043 C17.6640102,18.855587 16.8434034,18.8424783 16.0229898,18.8424783 C14.8926508,18.8422826 14.9050169,18.8422826 14.9110068,19.9903696 C14.912939,20.3801087 15.0675153,20.5352609 15.4350203,20.5309565 C15.9435763,20.5248913 16.451939,20.5293913 16.9604949,20.5293913 Z M25.6472949,22.3477826 C26.3523559,22.3477826 26.9581017,22.356587 27.5630746,22.3391739 C27.6664475,22.3362391 27.8206373,22.2454565 27.859861,22.1546739 C28.2312305,21.2947826 28.5825051,20.4262826 28.9449864,19.547413 C28.5838576,19.4470435 28.3848407,19.5258913 28.2488136,19.857913 C28.0420678,20.3623043 27.7566814,20.8340217 27.5526407,21.3393913 C27.3746847,21.7798043 27.1207932,21.9707609 26.619,21.7876304 C27.0129763,21.0455217 27.4046339,20.307913 27.7962915,19.5703043 C27.7704,19.5253043 27.7447017,19.4805 27.7190034,19.4356957 C27.5377627,19.5166957 27.2755627,19.5466304 27.189,19.6873043 C26.6702034,20.5291957 26.1919831,21.3965217 25.6472949,22.3477826 Z M16.1528339,18.1246304 L16.8194441,18.1246304 C16.8480407,17.9630217 16.8729661,17.8211739 16.8949932,17.6973261 C17.3728271,17.4932609 17.3882847,17.8411304 17.420939,18.1330435 L18.0811729,18.1330435 C18.0150915,17.7409565 18.2117898,17.5873696 18.6264407,17.5560652 C18.5360136,17.3762609 18.4166034,17.2727609 18.3008644,17.1651522 C18.2301458,17.099413 18.1118949,17.0270217 18.1120881,16.9579565 C18.1124746,16.8865435 18.230339,16.7546739 18.2966136,16.7546739 C18.6370678,16.7550652 18.6285661,16.5809348 18.5348542,16.3152391 L18.0405966,16.3152391 C18.0011797,16.1728043 17.9675593,16.0515 17.8951017,15.7903043 C17.6881627,15.9368478 17.5474983,16.0833913 17.377078,16.1426739 C17.2246271,16.1956957 17.0283153,16.1894348 16.8716136,16.1416957 C16.6955898,16.0878913 16.5423661,15.9583696 16.2627763,15.7928478 C16.3926203,16.542587 15.9252203,16.3755 15.6891051,16.4431957 C15.3316475,17.0416957 16.1864542,16.7173043 16.1043356,17.1530217 C15.8823254,17.1862826 15.4962712,17.1307174 15.6721017,17.6149565 C15.7988542,17.6325652 15.9391322,17.6519348 16.0940949,17.6734565 C16.1147695,17.8325217 16.1333186,17.9737826 16.1528339,18.1246304 Z M17.3272271,23.0302174 C17.3759186,24.971087 17.6730915,26.8446522 18.5918542,28.5669783 C19.0086305,29.3480217 19.6020102,29.9717609 20.3710271,30.3894783 C20.7114814,30.5743696 21.1168576,30.636587 21.5191424,30.7627826 L21.5191424,29.5487609 C20.8563966,29.6325 20.3855186,29.312413 19.9472949,28.9109348 C19.1887119,28.2157826 18.6061525,27.3922826 18.2956475,26.4050217 C17.9445661,25.2892174 17.6475864,24.156 17.3272271,23.0302174 Z M36.3928576,30.8729348 L36.3928576,28.7213478 C36.3671593,28.6871087 36.3416542,28.6528696 36.3159559,28.6186304 C35.1133525,30.1977391 33.7615831,31.3714565 31.6141322,30.4544348 C32.8768271,31.8318261 33.8268915,33.3025435 33.8670814,35.2463478 C34.3968915,35.2125 34.8770441,35.1819783 35.4634678,35.144413 C35.092678,35.7446739 34.7752169,36.2582609 34.4214305,36.8309348 C34.880522,36.8058913 35.2652237,36.7849565 35.740739,36.7589348 C35.3160407,37.6526739 35.0362576,38.5366304 34.3690678,39.218087 C33.9926746,39.6025435 33.5074983,39.6379565 33.0408712,39.6389348 C31.8570102,39.6408913 30.6714102,39.6144783 29.4894814,39.5477609 C28.6737051,39.5017826 28.3239763,39.0975652 28.386,38.271913 C28.4329525,37.6458261 28.5900407,37.0283478 28.6974712,36.4069565 C28.9364847,35.0242826 28.3230102,34.2019565 26.9032271,34.0395652 L26.9032271,35.8722391 C27.2991356,35.8503261 27.6797797,35.8293913 28.1788678,35.802 C27.6873153,36.2439783 27.2782678,36.6118043 26.7905797,37.0502609 L27.9442983,37.0502609 C27.9572441,38.6236957 26.8840983,39.8240217 25.414078,39.8580652 C24.0990203,39.888587 22.7828034,39.8637391 21.4671661,39.8553261 C20.8992915,39.8518043 20.5093729,39.5720217 20.2769288,39.0443478 C19.8251797,38.0195217 20.0307661,36.8757391 20.8838339,36.0796304 C21.1956915,35.7888913 21.308339,35.4989348 21.2836068,35.0829783 C21.2449627,34.4343913 21.4613695,33.6778043 21.1974305,33.1622609 C20.9448915,32.6690217 20.2116203,32.4334565 19.7001661,32.0693478 C18.6397729,31.3147174 17.7505729,30.3851739 16.9778847,29.3331522 C16.1995932,28.2731087 15.9781627,27.0285652 15.8286102,25.7715 C15.6597356,24.3524348 15.5538508,22.9259348 15.4153119,21.4456304 C15.1795831,21.4350652 14.9206678,21.3973043 14.6661966,21.4166739 C13.8566034,21.4783043 13.4409864,21.0116739 13.5797186,20.1826957 C13.6044508,20.0355652 13.624739,19.8808043 13.6077356,19.7342609 C13.5149898,18.9342391 13.7520712,18.363913 14.5852373,18.1277609 C14.7007831,18.095087 14.8159424,17.8307609 14.8219322,17.6695435 C14.8509153,16.8867391 14.8424136,16.1025652 14.8485966,15.3189783 C14.8487898,15.3058696 14.8679186,15.2931522 14.9040508,15.2473696 L19.1052407,15.2473696 C19.1052407,15.915913 19.1185729,16.5776087 19.1000237,17.2383261 C19.0890102,17.6329565 19.2012712,17.9129348 19.6020102,18.0221087 C20.1308542,18.165913 20.3661966,18.4963696 20.3347017,19.0680652 C20.3061051,19.5826304 20.3605932,20.1011087 20.3632983,20.6180217 C20.3656169,21.0791739 20.1032237,21.3278478 19.6333119,21.344087 C19.4076305,21.351913 19.1821424,21.3687391 18.9282508,21.3832174 C18.9962644,22.6471304 19.1404068,23.8445217 19.6651932,24.9603261 C20.0717288,25.8247174 20.7076169,26.3999348 21.7164203,26.5388478 L21.7164203,23.9607391 L20.301661,23.9607391 C20.6668475,23.3773043 20.9684644,22.8707609 21.3004169,22.3853478 C21.3686237,22.2855652 21.5450339,22.2352826 21.6795153,22.2133696 C22.0848915,22.1468478 22.4976102,22.1241522 22.9016339,22.0515652 C25.1520712,21.6481304 26.0086169,20.3971304 25.8826373,18.0575217 C25.8816712,18.0408913 25.8789661,18.0242609 25.8770339,18.0078261 C25.7487356,16.8642391 25.7796508,16.7951739 26.8377254,16.3404783 C27.9504814,15.8625 29.0742508,15.8491957 30.1860407,16.344 C30.8938068,16.659 31.4257424,17.1817826 31.6889085,17.918413 C31.8079322,18.2516087 32.0063695,18.3511957 32.3012237,18.4498043 C33.1390271,18.7303696 33.9837864,19.0056522 34.7866169,19.3711304 C35.349661,19.6274348 35.5637492,20.0097391 35.6642237,20.5117826 C34.6241186,20.646587 33.5330034,20.4382174 32.4774407,20.961 C33.437939,21.5323043 34.4036542,21.2527174 35.3672441,21.2231739 C34.4063593,22.3051304 33.4331085,22.8971739 30.7904339,22.9392391 C30.6470644,23.4160435 30.7313085,23.8650652 31.1546542,24.1174565 C31.7982712,24.5011304 32.4695186,24.8605435 33.170522,25.110587 C33.4385186,25.2062609 33.8278576,24.9937826 34.1501492,24.8853913 C35.1906407,24.5355652 36.209878,24.1063043 37.2689186,23.8327826 C37.8588203,23.6805652 38.5119051,23.7498261 39.1354271,23.7664565 C40.7598305,23.8095 42.3651051,23.7707609 43.8731898,22.8654783 C43.8857492,23.4346304 43.6113763,23.7746739 43.266478,24.0603261 C42.4764,24.7149783 41.5164814,24.9507391 40.5447763,25.1407174 C40.2068339,25.2068478 39.8609695,25.2311087 39.5185831,25.2731739 C38.7644441,25.365913 38.5789525,25.6102826 38.7478271,26.3807609 C38.7804814,26.5296522 38.9653932,26.7182609 39.1112746,26.7526957 C39.4320203,26.828413 39.6609864,26.6838261 39.6430169,26.3003478 C39.6352881,26.1352174 39.6171254,25.9704783 39.6105559,25.8892826 C40.8560542,25.6752391 42.0915051,25.4629565 43.3035763,25.254587 C42.6037322,26.2520217 41.6480644,26.9618478 40.3571593,27.1430217 C39.8855085,27.2093478 39.4082542,27.2408478 38.9325458,27.2698043 C38.5745085,27.2915217 38.5737356,27.5615217 38.5544136,27.8035435 C38.5325797,28.0786304 38.4649525,28.3908913 38.8202847,28.5276522 C39.2074983,28.6767391 39.4407153,28.4296304 39.4389763,27.9416739 C40.5668034,27.6716739 41.6814915,27.4048043 42.7509661,27.1486957 C42.3368949,28.0801957 41.5359966,28.620587 40.4439153,28.745413 C39.9374847,28.8031304 39.4268034,28.8262174 38.9211458,28.8890217 C38.5876475,28.9305 38.4516203,29.3071304 38.5457186,29.8201304 C38.6129593,30.1867826 38.9153492,30.2617174 39.1363932,30.1400217 C39.3323186,30.0322174 39.4210068,29.7244565 39.5840847,29.4615 C40.5161797,29.2591957 41.5761864,29.028913 42.6383186,28.7982391 C42.1286034,29.5540435 41.6385966,30.5323043 40.5517322,30.6727826 C39.1932,30.8484783 37.8083898,30.8146304 36.3928576,30.8729348 L36.3928576,30.8729348 Z" id="Fill-49" fill="#FFFFFF" mask="url(#mask-2)"></path>
                <path d="M38.5592441,34.8904565 C38.2015932,35.7092609 38.0543593,36.4476522 38.1668136,37.2097174 C38.2014,37.4433261 38.4386746,37.646413 38.5830102,37.8633913 C38.7424169,37.6440652 39.0038441,37.4415652 39.0421017,37.2022826 C39.1655695,36.4296522 38.9522542,35.6986957 38.5592441,34.8904565 Z M35.6499254,31.9748478 C36.2288136,32.0558478 36.8078949,32.1366522 37.4424305,32.2252826 C37.4615593,31.8746739 37.4764373,31.6011522 37.4930542,31.2933913 L41.4096305,31.2933913 C41.4208373,31.5035217 41.4318508,31.7293043 41.4453763,31.955087 C41.460061,32.2000435 41.4283729,32.4571304 41.7854441,32.5152391 C41.8710407,32.5293261 41.9798237,32.7351522 41.9865864,32.8582174 C42.1442542,35.6640652 41.9050475,38.4141522 40.8114203,41.0358913 C40.7221525,41.2497391 40.6046746,41.4518478 40.4947322,41.6563043 C40.4744441,41.6936739 40.4272983,41.7161739 40.3617966,41.7715435 C40.2590034,40.8946304 40.2495356,40.0157609 39.5019661,39.2120217 C39.5019661,39.8897609 39.4563661,40.4397391 39.5147186,40.9783696 C39.5748102,41.5332391 39.7359559,42.0769565 39.8571051,42.6451304 C38.9449119,42.1348696 38.3961661,41.7781957 38.4379017,40.1726739 C38.3604203,40.179913 38.2369525,40.1621087 38.2199492,40.1971304 C38.0275017,40.5935217 37.7272373,40.7230435 37.2992542,40.6813696 C37.2287288,40.6745217 37.1311525,40.9546957 36.966722,41.3006087 C36.8196814,41.0783478 36.6786305,40.8517826 36.5246339,40.635 C36.2918034,40.3074783 36.1275661,39.9513913 36.3341186,39.5685 C36.5578678,39.1535217 36.9761898,39.0437609 37.4010814,39.1079348 C37.7674271,39.1633043 38.119861,39.3139565 38.5175085,39.4344783 L38.5175085,38.880587 C38.3793559,38.8723696 38.2508644,38.8637609 38.1225661,38.856913 C36.9816,38.7970435 36.5422169,38.2646739 36.620278,37.1132609 C36.6969864,35.9839565 36.7209458,34.8509348 36.7849017,33.7206522 C36.8106,33.2663478 36.6152542,32.9785435 36.2566373,32.7294783 C35.988061,32.5426304 35.7741661,32.2747826 35.5361186,32.0429348 C35.5739898,32.0202391 35.6120542,31.9975435 35.6499254,31.9748478 L35.6499254,31.9748478 Z" id="Fill-50" fill="#FFFFFF" mask="url(#mask-2)"></path>
                <path d="M18.8722169,32.1914348 C19.3635763,32.5502609 19.8018,32.8705435 20.2891017,33.2264348 C19.914061,33.7425652 19.5386339,34.2389348 19.1892915,34.7535 C19.1013763,34.8832174 19.0211898,35.0974565 19.0658237,35.2279565 C19.7531085,37.2404348 19.1286203,38.9042609 17.8029356,40.4191957 C17.1859831,41.1241304 16.6372373,41.8903043 16.0390271,42.6525652 C15.8027186,42.1528696 15.4812,41.5786304 15.5169458,40.8961957 C15.5268,40.7056304 15.6755797,40.5045 15.8017525,40.3407391 C16.5023695,39.4315435 17.1803797,38.5127609 17.4406475,37.3562609 C17.6850712,36.2703913 17.0785525,35.621413 16.0042475,35.8066957 C14.9227932,35.9931522 13.9935966,36.5200435 13.1156034,37.1433913 C12.7556339,37.398913 12.4285119,37.4280652 12.0658373,37.2195 C11.5961186,36.9495 11.1321966,36.6685435 10.6640237,36.3367174 C11.6175661,36.3627391 12.2443729,35.7462391 12.9053797,35.235 C14.2188915,34.2189783 15.6429254,33.5979783 17.3363085,33.7501957 C17.4916576,33.764087 17.7069051,33.6443478 17.8176203,33.5179565 C18.1762373,33.1084565 18.4991085,32.6668696 18.8722169,32.1914348" id="Fill-51" fill="#FFFFFF" mask="url(#mask-2)"></path>
                <path d="M40.4358,21.8062174 L40.4358,21.7702174 C40.7810847,21.7702174 41.1263695,21.7768696 41.471461,21.7690435 C42.8127966,21.7387174 42.5757153,21.9525652 42.6174508,20.5957174 C42.6284644,20.2343478 42.4742746,20.1351522 42.1471525,20.1392609 C41.2102271,20.1511957 40.2729153,20.1433696 39.3357966,20.1433696 C38.2282576,20.1433696 38.2448746,20.1433696 38.2412034,21.2621087 C38.2398508,21.6954783 38.4342305,21.8142391 38.8088847,21.8083696 C39.351061,21.7999565 39.8934305,21.8062174 40.4358,21.8062174 Z M42.3852,23.1403696 L38.2786881,23.1403696 C38.3511458,22.6526087 38.1051763,22.3992391 37.7608576,22.1648478 C37.5376881,22.0130217 37.3510373,21.7723696 37.2117254,21.5332826 C36.6285864,20.5333043 37.2009051,19.5454565 38.3501797,19.5438913 C39.7176,19.5423261 41.0852136,19.5552391 42.4526339,19.5382174 C43.0435017,19.5307826 43.4807593,19.7733913 43.7518475,20.2793478 C44.0182983,20.7765 43.9483525,21.2930217 43.6308915,21.7424348 C43.4430814,22.0081304 43.1712203,22.2116087 42.9492102,22.4542174 C42.7791763,22.640087 42.6276915,22.8431739 42.3852,23.1403696 L42.3852,23.1403696 Z" id="Fill-52" fill="#FFFFFF" mask="url(#mask-2)"></path>
                <path d="M23.9828949,18.9592826 C23.9266678,18.6566087 23.8648373,18.3376957 23.4507661,18.3255652 C23.0973661,18.3151957 22.6645525,18.7317391 22.6579831,19.0766739 C22.6516068,19.4114348 22.9800814,19.7473696 23.3151254,19.7483478 C23.6764475,19.7495217 23.9881119,19.3885435 23.9828949,18.9592826 Z M21.1620712,19.0743261 C21.1968508,18.318913 21.669661,17.7045652 22.3575254,17.2432174 C22.8483051,16.9139348 23.3520305,16.5537391 23.993522,16.707913 C24.9024305,16.9264565 25.2757322,17.6161304 25.4426746,18.4699565 C25.6426576,19.4922391 25.0367186,20.7448043 24.1222068,21.2014565 C22.8446339,21.839087 21.1649695,20.7027391 21.1620712,19.0743261 L21.1620712,19.0743261 Z" id="Fill-53" fill="#FFFFFF" mask="url(#mask-2)"></path>
                <path d="M35.411878,18.939913 C34.5145627,18.6106304 33.7434203,18.2921087 32.9500576,18.0473478 C32.2420983,17.829 31.9451186,17.0557826 32.4140644,16.451413 C32.5881559,16.2271957 32.8345119,16.0606957 33.1110102,15.8108478 C33.0820271,16.169087 33.061739,16.4183478 33.0387458,16.6998913 C33.5196712,16.5224348 33.9190576,16.3340217 34.3387322,16.2285652 C35.2802949,15.992413 36.3030102,16.8513261 36.2699695,17.829 C36.2483288,18.4635 35.7318508,18.6941739 35.411878,18.939913" id="Fill-54" fill="#FFFFFF" mask="url(#mask-2)"></path>
                <path d="M38.5692915,16.3901739 L39.7262949,16.3901739 C39.7262949,16.8769565 39.7237831,17.3682391 39.7270678,17.8597174 C39.7299661,18.3128478 39.9898475,18.5116304 40.4073966,18.5472391 C40.4238203,18.5488043 40.4402441,18.549587 40.4566678,18.5497826 C41.7568475,18.5718913 41.6569525,18.4271087 41.7085424,17.3997391 C41.7234203,17.1017609 41.710861,16.802413 41.710861,16.4606087 L42.9501763,16.4606087 C42.8862203,17.1628043 42.8529864,17.8673478 42.7476814,18.5609348 C42.6817932,18.9945 42.3086847,19.2071739 41.9145153,19.2134348 C41.0628,19.2273261 40.2081864,19.2028696 39.3582102,19.142413 C38.8923559,19.1091522 38.6129593,18.7579565 38.5806915,18.306587 C38.5358644,17.6820652 38.5692915,17.0516739 38.5692915,16.3901739" id="Fill-55" fill="#FFFFFF" mask="url(#mask-2)"></path>
                <path d="M12.3867763,40.1470435 C12.9565831,39.3133696 13.5026237,38.4615 14.1079831,37.6552174 C14.3383017,37.3486304 14.6801085,37.1034783 15.0153458,36.9082174 C15.4004339,36.6836087 15.8174034,36.7323261 16.1561186,37.0539783 C16.5155085,37.395587 16.6639017,37.8610435 16.4208305,38.276413 C16.2007525,38.6524565 15.8572068,39.0525652 15.4744373,39.2131957 C14.4959695,39.6240652 13.4653322,39.9073696 12.4555627,40.2417391 C12.4325695,40.2100435 12.4097695,40.1785435 12.3867763,40.1470435" id="Fill-56" fill="#FFFFFF" mask="url(#mask-2)"></path>
                <path d="M40.2363966,16.4711739 C40.3797661,16.4498478 40.4576339,16.430087 40.5358881,16.4283261 C40.7468847,16.4236304 40.9580746,16.4267609 41.2154441,16.4267609 C41.2154441,16.8076957 41.264522,17.1626087 41.1945763,17.4916957 C41.1597966,17.6556522 40.9202034,17.8538478 40.7484305,17.8820217 C40.6328847,17.901 40.393678,17.6713043 40.3513627,17.5138043 C40.2638339,17.1874565 40.2705966,16.8352826 40.2363966,16.4711739" id="Fill-57" fill="#FFFFFF" mask="url(#mask-2)"></path>
                <path d="M17.5849017,16.6069565 L17.5849017,17.3569565 L16.8349017,17.3569565 L16.8349017,16.6069565 L17.5849017,16.6069565" id="Fill-58" fill="#FFFFFF" mask="url(#mask-2)"></path>
                <path d="M16.9537322,19.2382826 C17.3795898,19.238087 17.8054475,19.245913 18.2309186,19.2355435 C18.5456746,19.227913 18.5706,19.4239565 18.5526305,19.6608913 C18.5358203,19.884913 18.5864441,20.1474783 18.2243492,20.1445435 C17.3892508,20.1376957 16.5539593,20.1378913 15.718861,20.1453261 C15.4083559,20.1482609 15.3787932,19.9600435 15.3921254,19.719587 C15.4050712,19.4873478 15.3733831,19.232413 15.7256237,19.2371087 C16.1348644,19.2423913 16.5442983,19.2382826 16.9537322,19.2382826" id="Fill-59" fill="#FFFFFF" mask="url(#mask-2)"></path>
                <path d="M40.4814,21.3802826 C40.0373797,21.3802826 39.5933593,21.3777391 39.1495322,21.3812609 C38.8676237,21.383413 38.7372,21.2750217 38.7453153,20.9633478 C38.7528508,20.6716304 38.8376746,20.5376087 39.1431559,20.5413261 C40.0311966,20.5522826 40.9194305,20.552087 41.8074712,20.5409348 C42.0826169,20.5376087 42.1941051,20.6366087 42.1863763,20.9183478 C42.1790339,21.1816957 42.144061,21.3740217 41.8132678,21.3624783 C41.3698271,21.3470217 40.9254203,21.3585652 40.4814,21.3585652 L40.4814,21.3802826" id="Fill-60" fill="#FFFFFF" mask="url(#mask-2)"></path>
            </g>
        </g>
    </g>
</svg>